# xmcd CD database file
#
# Track frame offsets:
#	150
#	11673
#	31043
#	47370
#	65956
#	107854
#	124653
#	140807
#	169679
#	199269
#
# Disc length: 2879 seconds
#
# Revision: 0
# Processed by: cddbd v1.5.2PL0 Copyright (c) Steve Scherf et al.
# Submitted via: CDex 1.70beta2
#
DISCID=8c0b3d0a
DTITLE=Layla Zoe - Sleep Little Girl
DYEAR=2011
DGENRE=Blues
TTITLE0=I've Been Down
TTITLE1=Give It to Me
TTITLE2=Singing My Blues
TTITLE3=Let's Get crazy
TTITLE4=Black Oil
TTITLE5=Pull Yourself Together
TTITLE6=I Hope She Loves You Like I Do
TTITLE7=Hippie Chick
TTITLE8=Rock and Roll Guitar Man
TTITLE9=Sleep Little Girl
EXTD=YEAR: 2011
EXTT0=
EXTT1=
EXTT2=
EXTT3=
EXTT4=
EXTT5=
EXTT6=
EXTT7=
EXTT8=
EXTT9=
PLAYORDER=
